# xmcd
#
# Track frame offsets: 
#        183
#        12450
#        21798
#        33498
#        43823
#        55780
#        72143
#        87260
#        96873
#        111693
#        120370
#        131580
#
# Disc length: 1898 seconds
#
# Revision: 1
# Processed by: cddbd v1.5.2PL0 Copyright (c) Steve Scherf et al.
# Submitted via: ExactAudioCopyFreeDBPlugin 1.0
#
DISCID=a107680c
DTITLE=I Giganti - Flashback [Disc 1]
DYEAR=2009
DGENRE=pop
TTITLE0=Da Bambini
TTITLE1=Fuori Dal Mondo
TTITLE2=I Giganti
TTITLE3=Il Mio Giorno Verrà
TTITLE4=In Paese è Festa
TTITLE5=La Bomba Atomica
TTITLE6=Giorni Di Festa
TTITLE7=Un Uomo Va
TTITLE8=Io E Il Presidente
TTITLE9=Amici Miei
TTITLE10=Un Momento D'Amore
TTITLE11=Morirai Senza Di Lei
EXTD=
EXTT0=
EXTT1=
EXTT2=
EXTT3=
EXTT4=
EXTT5=
EXTT6=
EXTT7=
EXTT8=
EXTT9=
EXTT10=
EXTT11=
PLAYORDER=
